<svg xmlns="http://www.w3.org/2000/svg" width="760" height="260" viewBox="0 0 760 260">
<rect width="760" height="260" rx="28" fill="#ffffff"/>
<rect x="20" y="20" width="720" height="220" rx="24" fill="#eef4ff" stroke="#cfe0ff"/>
<text x="40" y="60" font-family="Manrope, Arial, sans-serif" font-size="28" font-weight="700" fill="#122038">Stack Overflow Flow</text>
<text x="40" y="88" font-family="Manrope, Arial, sans-serif" font-size="16" fill="#3e4f70">Stack limit crossing during recursion</text>
<rect x="50" y="110" width="150" height="54" rx="18" fill="#f5f8ff" stroke="#2260ee" stroke-width="2"/><text x="125" y="142" text-anchor="middle" font-family="Manrope, Arial, sans-serif" font-size="16" fill="#122038">Function Call</text><rect x="220" y="110" width="150" height="54" rx="18" fill="#f5f8ff" stroke="#2260ee" stroke-width="2"/><text x="295" y="142" text-anchor="middle" font-family="Manrope, Arial, sans-serif" font-size="16" fill="#122038">Stack Frame</text><rect x="390" y="110" width="150" height="54" rx="18" fill="#f5f8ff" stroke="#2260ee" stroke-width="2"/><text x="465" y="142" text-anchor="middle" font-family="Manrope, Arial, sans-serif" font-size="16" fill="#122038">Limit</text><rect x="560" y="110" width="150" height="54" rx="18" fill="#f5f8ff" stroke="#2260ee" stroke-width="2"/><text x="635" y="142" text-anchor="middle" font-family="Manrope, Arial, sans-serif" font-size="16" fill="#122038">Fault</text>
<line x1="200" y1="137" x2="220" y2="137" stroke="#12b8b5" stroke-width="4" stroke-linecap="round"/><polygon points="220,137 206,129 206,145" fill="#12b8b5"/><line x1="370" y1="137" x2="390" y2="137" stroke="#12b8b5" stroke-width="4" stroke-linecap="round"/><polygon points="390,137 376,129 376,145" fill="#12b8b5"/><line x1="540" y1="137" x2="560" y2="137" stroke="#12b8b5" stroke-width="4" stroke-linecap="round"/><polygon points="560,137 546,129 546,145" fill="#12b8b5"/>
</svg>